<?xml version="1.0" encoding="utf-8"?>
<!-- Generator: Adobe Illustrator 23.1.1, SVG Export Plug-In . SVG Version: 6.00 Build 0)  -->
<svg version="1.1" id="Layer_1" xmlns="http://www.w3.org/2000/svg" xmlns:xlink="http://www.w3.org/1999/xlink" x="0px" y="0px"
	 viewBox="0 0 222.5 222.5" style="enable-background:new 0 0 222.5 222.5;" xml:space="preserve">
<style type="text/css">
	.st0{fill:#FFFFFF;}
</style>
<g>
	<path class="st0" d="M116,111.8l24.8,19.6v38.4c9.8-3.3,18.8-7.3,27.1-13.3c-2.6,0.3-5.2,0.7-8.6,1.1c3.8-5.8,9.4-13.7,12.4-24.7
		c6.2-20.1,2.5-38.9-9.3-55.3c-11.2-15.8-26.8-23-44.7-24.9c-13.8-1.4-27,0.9-39.3,7.9c-17.8,10-28.1,25.9-30.8,47.9
		c-0.9,7.2-0.6,14.3,0.8,21.2c1.3,6.1,3.8,17.2,14,27.3c-1.7,0-7.3-1.2-9.3-2.2c6.6,9.5,18.7,13.9,27.5,14.9c0.1-2.9,0-62.5,0-62.5
		L106,86.7v82.6c0,0-14.7,20.3-20.5,27.7c-2.3,2.9-4.7,4.1-8.1,2.5c-23.6-10.7-42.4-27-52.9-53.3c-3.4-8.5-4.9-17.3-5.1-26.7
		c-0.2-12.9,0.8-25.5,5.7-37.4c7.8-19.1,20.1-33.7,36.6-43.9c15.1-9.4,31.3-13.6,48.8-13.7c20-0.2,38.4,5.2,54.9,17.2
		c20.5,14.9,33.9,35.6,36.8,62.9c3.2,29.4-5.9,54-26,73.7c-9.1,8.9-19.2,15.8-30.5,20.6c-5.6,2.4-6,2.2-9.9-2.7
		C130,189,116,169.3,116,169.3L116,111.8L116,111.8z"/>
</g>
</svg>
