<?xml version="1.0" encoding="utf-8"?>
<!-- Generator: Adobe Illustrator 17.0.0, SVG Export Plug-In . SVG Version: 6.00 Build 0)  -->
<!DOCTYPE svg PUBLIC "-//W3C//DTD SVG 1.1//EN" "http://www.w3.org/Graphics/SVG/1.1/DTD/svg11.dtd">
<svg version="1.1" id="Layer_1" xmlns="http://www.w3.org/2000/svg" xmlns:xlink="http://www.w3.org/1999/xlink" x="0px" y="0px"
	 width="324px" height="139.982px" viewBox="0 0 324 139.982" enable-background="new 0 0 324 139.982" xml:space="preserve">
<g>
	<path fill="#231F20" d="M94.698,37.279c19.663,0,31.104,14.121,31.104,32.801c0,18.323-11.619,32.891-31.819,32.891
		c-21.093,0-30.478-17.25-30.478-32.891C63.505,52.652,73.784,37.279,94.698,37.279z M78.431,69.723
		c0,7.061,2.503,21.183,16.177,21.183c10.726,0,16.356-8.849,16.356-20.736c0-2.77,0-11.619-6.256-17.25
		c-2.681-2.413-6.346-3.664-10.011-3.664C83.883,49.255,78.431,58.908,78.431,69.723z"/>
	<path fill="#231F20" d="M147.523,70.349c0,14.301,7.418,20.736,16.445,20.736c5.81,0,9.921-2.681,12.066-6.077
		c0.536-0.894,0.983-1.877,1.609-2.771c0.715-1.072,2.056-2.502,4.648-2.502c3.128,0,7.15,2.145,7.15,6.524
		c0,0.626-0.09,1.788-0.626,3.307c-0.983,2.413-2.949,4.826-4.916,6.524c-6.614,5.81-14.122,6.704-20.021,6.704
		c-9.295,0-13.854-2.413-16.535-4.022c-7.686-4.558-14.926-14.122-14.926-28.958c0-17.965,11.262-32.623,31.104-32.623
		c4.916,0,9.474,0.894,12.87,2.235c5.184,2.055,11.619,7.061,11.619,12.155c0,4.112-3.575,6.614-6.525,6.614
		c-2.681,0-4.29-1.877-4.916-2.592c-0.715-0.715-1.251-1.43-1.966-2.145c-1.162-1.43-3.933-4.469-10.815-4.469
		C149.579,48.987,147.523,63.019,147.523,70.349z"/>
	<path fill="#231F20" d="M198.559,46.664c0.089-2.235,0.089-5.005,2.056-6.971c0.536-0.537,1.966-1.877,5.005-1.877
		c0.983,0,3.664,0.09,5.541,2.592c1.43,1.966,1.519,4.112,1.519,5.988v31.818c0,4.827,0,12.692,11.351,12.692
		c0.4,0,2.863-0.01,3.236-0.029c9.943-0.511,10.195-7.682,10.281-13.11V46.306c0.089-2.413,0.089-4.915,2.413-6.882
		c1.698-1.519,3.754-1.609,4.558-1.609c6.972,0,7.061,6.435,7.061,9.027v32.265c0,5.542-0.089,12.156-5.363,17.518
		c-4.846,4.759-11.786,6.167-18.631,6.252c-0.225,0.003-2.527,0.004-2.751,0.004c-4.379,0-10.189-0.536-15.016-2.592
		c-11.083-4.737-11.172-14.658-11.261-21.808V46.664z"/>
	<path fill="#231F20" d="M310.807,51.4c0,4.29-3.843,6.704-7.15,6.704c-1.877,0-3.486-0.715-5.363-3.218
		c-0.447-0.626-0.805-1.251-1.341-1.877c-1.966-2.592-5.363-4.29-10.457-4.29c-6.346,0-10.725,2.324-10.725,6.435
		c0,1.43,0.447,2.771,1.787,3.844c1.341,1.072,3.575,1.698,7.955,2.86c13.854,3.754,15.284,4.111,18.501,6.167
		c3.843,2.502,7.954,7.24,7.954,14.569c0,6.524-3.128,11.708-7.329,15.015c-5.184,4.022-11.887,5.363-18.501,5.363
		c-6.524,0-12.245-1.072-16.982-3.397c-9.474-4.737-10.1-10.814-10.1-12.423c0-4.379,3.575-7.061,6.972-7.061
		c2.949,0,4.826,1.877,6.882,4.916c1.966,2.949,4.29,6.256,13.317,6.256c2.056,0,4.29-0.179,6.257-0.983
		c0.715-0.268,4.737-1.877,4.737-6.525c0-2.502-1.072-3.933-2.592-5.005c-1.788-1.251-3.128-1.609-11.53-3.754
		c-10.368-2.77-21.987-5.899-21.987-18.859c0-11.44,8.938-19.127,25.205-19.127C301.958,37.011,310.807,45.055,310.807,51.4z"/>
	<g>
		<path fill="#231F20" d="M25.975,49.747v13.585h21.004c2.056,0,5.184,0,6.703,2.86c0.447,0.805,0.626,1.788,0.626,2.681
			c0,5.631-5.452,5.631-7.597,5.631H25.975v18.412c0,1.698-0.09,3.396-0.715,5.005c-1.519,3.754-4.916,3.933-6.256,3.933
			c-1.341,0-2.681-0.268-3.754-0.894c-3.128-1.877-3.218-5.095-3.218-7.686V47.066c0-2.413,0.089-5.452,2.771-7.418
			c2.056-1.519,4.737-1.519,6.882-1.519H49.66c1.43,0,2.949,0.089,4.29,0.626c2.145,0.983,3.218,2.86,3.218,5.095
			c0,0.715-0.089,2.145-0.894,3.307c-1.698,2.592-4.648,2.592-6.793,2.592H25.975z"/>
	</g>
	<g>
		<g>
			<g>
				<path fill="#1B99A7" d="M117.217,29.746c-0.879,0-1.772-0.196-2.615-0.608c-6.245-3.056-12.957-4.606-19.949-4.606
					c-6.992,0-13.704,1.55-19.949,4.606c-2.957,1.446-6.525,0.223-7.972-2.733c-1.446-2.956-0.223-6.525,2.733-7.972
					c7.89-3.861,16.364-5.818,25.187-5.818s17.297,1.958,25.187,5.818c2.956,1.447,4.18,5.016,2.733,7.972
					C121.54,28.518,119.421,29.746,117.217,29.746z"/>
			</g>
			<g>
				<path fill="#1B99A7" d="M94.653,127.368c-8.823,0-17.297-1.958-25.187-5.818c-2.956-1.447-4.18-5.016-2.733-7.972
					c1.447-2.956,5.015-4.179,7.972-2.733c6.245,3.056,12.957,4.606,19.949,4.606c6.992,0,13.704-1.55,19.949-4.606
					c2.956-1.447,6.524-0.223,7.972,2.733c1.446,2.956,0.223,6.525-2.733,7.972C111.951,125.41,103.477,127.368,94.653,127.368z"/>
			</g>
		</g>
	</g>
	<g>
		<path fill="#231F20" d="M146.209,125.129c-0.296,0-0.449-0.153-0.449-0.449v-8.476c0-0.267,0.172-0.458,0.449-0.458h1.651
			c0.239,0,0.477,0.201,0.477,0.458v8.476c0,0.296-0.162,0.449-0.477,0.449H146.209z"/>
		<path fill="#231F20" d="M151.832,125.129c-0.296,0-0.439-0.143-0.439-0.439v-8.457c0-0.267,0.172-0.468,0.439-0.468h2.138
			c0.172,0,0.315,0.076,0.42,0.219l3.694,5.078v-4.916c0.038-0.258,0.181-0.382,0.43-0.382h1.699c0.239,0,0.477,0.181,0.477,0.448
			v8.476c0,0.296-0.162,0.439-0.477,0.439h-2.062c-0.124,0-0.248-0.076-0.363-0.22l-3.789-5.192v4.973
			c0,0.296-0.153,0.439-0.458,0.439H151.832z"/>
		<path fill="#231F20" d="M166.276,125.129c-0.22,0-0.382-0.086-0.506-0.248c-0.067-0.095-0.162-0.277-0.267-0.544l-1.565-3.856
			l-1.651-4.19c-0.019-0.048-0.029-0.095-0.029-0.134c0-0.22,0.219-0.401,0.487-0.401h1.737c0.315,0,0.496,0.162,0.611,0.439
			l1.88,5.259l1.88-5.278c0.124-0.286,0.344-0.43,0.64-0.43h1.708c0.315,0,0.535,0.124,0.535,0.325c0,0.038-0.01,0.076-0.029,0.114
			l-3.36,8.352c-0.162,0.392-0.382,0.592-0.668,0.592H166.276z"/>
		<path fill="#231F20" d="M173.857,125.129c-0.239-0.01-0.372-0.172-0.372-0.439v-8.476c0-0.296,0.143-0.448,0.439-0.448h6.09
			c0.267,0,0.449,0.181,0.449,0.448v1.308c0,0.296-0.181,0.458-0.449,0.458h-3.961v1.422h3.131c0.267,0,0.439,0.172,0.439,0.468
			v1.155c0,0.267-0.172,0.449-0.439,0.449h-3.131v1.384h4.171c0.267,0,0.449,0.181,0.449,0.477v1.356
			c0,0.258-0.172,0.439-0.449,0.439H173.857z"/>
		<path fill="#231F20" d="M182.536,123.955c-0.134-0.143-0.229-0.286-0.296-0.449c-0.029-0.048-0.038-0.105-0.038-0.191
			c0-0.114,0.048-0.21,0.134-0.277l1.164-0.935c0.048-0.048,0.143-0.095,0.21-0.095c0.2,0.029,0.563,0.353,0.697,0.468
			c0.296,0.258,0.601,0.458,0.935,0.592c0.181,0.067,0.363,0.105,0.554,0.105c0.401,0,0.697-0.095,0.888-0.286
			c0.162-0.162,0.239-0.372,0.239-0.63c0-0.239-0.191-0.458-0.563-0.668c-0.334-0.191-0.792-0.305-0.869-0.334
			c-1.098-0.296-1.899-0.678-2.405-1.145c-0.506-0.468-0.754-1.06-0.754-1.814c0-0.725,0.353-1.403,0.974-1.909
			c0.64-0.506,1.537-0.811,2.596-0.811c1.222,0,2.253,0.429,3.054,1.155c0.229,0.21,0.344,0.401,0.344,0.563
			c0,0.048-0.029,0.105-0.095,0.172c-0.095,0.124-0.286,0.296-0.573,0.534c-0.22,0.191-0.439,0.344-0.64,0.468
			c-0.086,0.048-0.153,0.076-0.181,0.076c-0.086,0-0.2-0.057-0.325-0.172c-0.038-0.038-0.334-0.305-0.63-0.458
			c-0.296-0.143-0.601-0.22-0.916-0.22c-0.277,0-0.496,0.048-0.668,0.134c-0.21,0.105-0.315,0.267-0.315,0.496
			c0,0.21,0.134,0.391,0.391,0.544c0.219,0.143,0.64,0.277,1.069,0.42c1.04,0.343,1.814,0.697,2.348,1.155
			c0.582,0.506,0.888,1.117,0.888,1.928c0,0.955-0.439,1.69-1.174,2.215c-0.716,0.496-1.651,0.764-2.673,0.764
			C184.569,125.349,183.347,124.834,182.536,123.955z"/>
		<path fill="#231F20" d="M193.4,125.129c-0.296,0-0.439-0.143-0.439-0.439v-6.538h-1.995c-0.239,0-0.353-0.134-0.353-0.391v-1.632
			c0-0.239,0.114-0.362,0.353-0.362h6.758c0.238,0,0.353,0.124,0.353,0.362v1.632c0,0.181-0.134,0.391-0.353,0.391h-2.014v6.538
			c0,0.296-0.153,0.439-0.468,0.439H193.4z"/>
		<path fill="#231F20" d="M199.462,125.129c-0.286,0-0.429-0.143-0.439-0.439l0.076-0.888c0.038-0.572,0.086-1.231,0.153-1.966
			l0.105-1.374l0.048-0.63l0.267-3.617c0.029-0.258,0.181-0.448,0.439-0.448h2.692c0.191,0,0.353,0.143,0.42,0.372v-0.01
			c0.239,0.611,0.468,1.155,0.668,1.642l0.535,1.317l0.783,1.928c0.678-1.642,1.346-3.264,1.985-4.877
			c0.067-0.229,0.229-0.372,0.42-0.372h2.692c0.258,0,0.41,0.191,0.439,0.448l0.086,1.117l0.181,2.377l0.162,2.081l0.219,2.902
			c0,0.296-0.143,0.439-0.439,0.439h-1.785c-0.296,0-0.449-0.143-0.468-0.439l-0.277-4.629c-0.01-0.067-0.01-0.162-0.01-0.267
			l-0.029-0.258c-0.382,0.916-0.706,1.699-0.964,2.348c-0.429,1.06-0.754,1.842-0.974,2.358c-0.105,0.229-0.248,0.362-0.401,0.362
			h-1.68c-0.143,0-0.229-0.124-0.41-0.382l-1.928-4.734c-0.067,1.155-0.114,2.024-0.153,2.596c-0.076,1.155-0.134,2.023-0.162,2.606
			c-0.019,0.296-0.172,0.439-0.458,0.439H199.462z"/>
		<path fill="#231F20" d="M213.878,125.129c-0.239-0.01-0.372-0.172-0.372-0.439v-8.476c0-0.296,0.143-0.448,0.439-0.448h6.09
			c0.267,0,0.449,0.181,0.449,0.448v1.308c0,0.296-0.181,0.458-0.449,0.458h-3.961v1.422h3.131c0.267,0,0.439,0.172,0.439,0.468
			v1.155c0,0.267-0.172,0.449-0.439,0.449h-3.131v1.384h4.171c0.267,0,0.449,0.181,0.449,0.477v1.356
			c0,0.258-0.172,0.439-0.449,0.439H213.878z"/>
		<path fill="#231F20" d="M223.406,125.129c-0.296,0-0.439-0.143-0.439-0.439v-8.457c0-0.267,0.172-0.468,0.439-0.468h2.138
			c0.172,0,0.315,0.076,0.42,0.219l3.694,5.078v-4.916c0.038-0.258,0.182-0.382,0.43-0.382h1.699c0.239,0,0.477,0.181,0.477,0.448
			v8.476c0,0.296-0.163,0.439-0.477,0.439h-2.062c-0.124,0-0.248-0.076-0.363-0.22l-3.789-5.192v4.973
			c0,0.296-0.153,0.439-0.458,0.439H223.406z"/>
		<path fill="#231F20" d="M236.743,125.129c-0.296,0-0.439-0.143-0.439-0.439v-6.538h-1.995c-0.239,0-0.353-0.134-0.353-0.391
			v-1.632c0-0.239,0.114-0.362,0.353-0.362h6.758c0.239,0,0.353,0.124,0.353,0.362v1.632c0,0.181-0.133,0.391-0.353,0.391h-2.014
			v6.538c0,0.296-0.153,0.439-0.468,0.439H236.743z"/>
		<path fill="#231F20" d="M249.995,123.917c-0.907-0.907-1.441-2.11-1.441-3.446c0-1.327,0.535-2.567,1.441-3.474
			c0.888-0.888,2.138-1.432,3.446-1.432c0.993,0,1.89,0.315,2.844,0.926h-0.009c0.239,0.153,0.343,0.277,0.343,0.477
			c0,0.076-0.029,0.172-0.067,0.22l-0.735,1.269c-0.086,0.124-0.181,0.191-0.305,0.191c-0.076,0-0.181-0.038-0.305-0.124
			c-0.458-0.353-1.136-0.601-1.746-0.601c-0.678,0-1.269,0.277-1.699,0.763c-0.43,0.468-0.678,1.126-0.678,1.814
			c0,0.716,0.248,1.346,0.678,1.775c0.42,0.43,0.993,0.678,1.632,0.678c0.334-0.01,0.639-0.057,0.897-0.143
			c0.258-0.086,0.573-0.22,0.964-0.401c0.105-0.067,0.201-0.095,0.267-0.095c0.086,0,0.181,0.076,0.286,0.219l0.821,1.184
			c0.038,0.067,0.076,0.153,0.076,0.201c0,0.2-0.134,0.324-0.325,0.439c-0.964,0.649-1.947,0.973-2.94,0.973
			C252.114,125.33,250.882,124.805,249.995,123.917z"/>
		<path fill="#231F20" d="M267.33,124.7c0.029,0.076,0.038,0.143,0.038,0.201c0,0.153-0.095,0.229-0.286,0.229h-2.014
			c-0.296,0-0.449-0.258-0.592-0.649l-0.267-0.802h-3.283c-0.153,0.468-0.286,0.84-0.392,1.136c-0.086,0.21-0.229,0.315-0.449,0.315
			h-2.023c-0.191,0-0.286-0.076-0.286-0.229c0-0.067,0-0.105,0.009-0.124c0.01-0.029,0.01-0.057,0.019-0.067l3.369-8.657
			c0.086-0.191,0.21-0.296,0.449-0.296h1.909c0.124,0,0.229,0.029,0.305,0.095c0.028,0.029,0.057,0.067,0.076,0.105
			c0.019,0.048,0.038,0.095,0.067,0.124c0.983,2.549,2.11,5.421,3.36,8.619H267.33z M263.512,121.588l-0.935-2.663l-0.134,0.353
			l-0.344,0.974l-0.372,1.05l-0.105,0.286H263.512z"/>
		<path fill="#231F20" d="M269.728,125.129c-0.315,0-0.468-0.162-0.468-0.477v-8.457c0-0.286,0.153-0.429,0.449-0.429h3.78
			c0.869,0,1.632,0.372,2.195,0.983c0.544,0.62,0.878,1.441,0.878,2.281c0,0.811-0.315,1.623-0.859,2.234
			c-0.563,0.62-1.327,0.992-2.167,0.992h-1.699v2.434c0,0.258-0.153,0.439-0.449,0.439H269.728z M272.888,120.004
			c0.258,0,0.487-0.095,0.697-0.296c0.191-0.191,0.286-0.42,0.286-0.678c0-0.277-0.095-0.525-0.286-0.726
			c-0.191-0.2-0.42-0.305-0.697-0.305h-1.05v2.005H272.888z"/>
		<path fill="#231F20" d="M279.075,125.129c-0.296,0-0.449-0.153-0.449-0.449v-8.476c0-0.267,0.172-0.458,0.449-0.458h1.651
			c0.239,0,0.477,0.201,0.477,0.458v8.476c0,0.296-0.162,0.449-0.477,0.449H279.075z"/>
		<path fill="#231F20" d="M285.777,125.129c-0.296,0-0.439-0.143-0.439-0.439v-6.538h-1.995c-0.239,0-0.353-0.134-0.353-0.391
			v-1.632c0-0.239,0.115-0.362,0.353-0.362h6.758c0.239,0,0.353,0.124,0.353,0.362v1.632c0,0.181-0.134,0.391-0.353,0.391h-2.014
			v6.538c0,0.296-0.153,0.439-0.468,0.439H285.777z"/>
		<path fill="#231F20" d="M300.249,124.7c0.029,0.076,0.038,0.143,0.038,0.201c0,0.153-0.095,0.229-0.286,0.229h-2.014
			c-0.296,0-0.449-0.258-0.592-0.649l-0.267-0.802h-3.283c-0.153,0.468-0.286,0.84-0.391,1.136c-0.086,0.21-0.229,0.315-0.449,0.315
			h-2.024c-0.191,0-0.286-0.076-0.286-0.229c0-0.067,0-0.105,0.01-0.124c0.009-0.029,0.009-0.057,0.019-0.067l3.369-8.657
			c0.086-0.191,0.21-0.296,0.449-0.296h1.909c0.124,0,0.229,0.029,0.305,0.095c0.029,0.029,0.057,0.067,0.076,0.105
			c0.019,0.048,0.038,0.095,0.067,0.124c0.983,2.549,2.109,5.421,3.36,8.619H300.249z M296.431,121.588l-0.935-2.663l-0.134,0.353
			l-0.343,0.974l-0.372,1.05l-0.105,0.286H296.431z"/>
		<path fill="#231F20" d="M302.552,125.129c-0.296,0-0.449-0.143-0.449-0.439v-8.476c0-0.267,0.172-0.448,0.468-0.448h1.68
			c0.258,0,0.439,0.172,0.439,0.448v6.347h4.304c0.267,0,0.449,0.182,0.449,0.477v1.651c0,0.258-0.181,0.439-0.449,0.439H302.552z"
			/>
	</g>
</g>
</svg>
