<?xml version="1.0" encoding="utf-8"?>
<!-- Generator: Adobe Illustrator 17.0.0, SVG Export Plug-In . SVG Version: 6.00 Build 0)  -->
<!DOCTYPE svg PUBLIC "-//W3C//DTD SVG 1.1//EN" "http://www.w3.org/Graphics/SVG/1.1/DTD/svg11.dtd">
<svg version="1.1" id="Layer_1" xmlns="http://www.w3.org/2000/svg" xmlns:xlink="http://www.w3.org/1999/xlink" x="0px" y="0px"
	 width="646px" height="280px" viewBox="0 0 646 280" enable-background="new 0 0 646 280" xml:space="preserve">
<g>
	<path fill="#231F20" d="M187.26,74.023c39.659,0,62.733,28.481,62.733,66.156c0,36.955-23.435,66.338-64.175,66.338
		c-42.542,0-61.47-34.792-61.47-66.338C124.348,105.029,145.078,74.023,187.26,74.023z M154.452,139.459
		c0,14.241,5.048,42.723,32.628,42.723c21.632,0,32.989-17.846,32.989-41.822c0-5.588,0-23.434-12.618-34.792
		c-5.408-4.867-12.799-7.39-20.19-7.39C165.448,98.178,154.452,117.647,154.452,139.459z"/>
	<path fill="#231F20" d="M293.802,140.721c0,28.842,14.962,41.822,33.168,41.822c11.717,0,20.01-5.408,24.336-12.258
		c1.082-1.803,1.983-3.786,3.245-5.589c1.442-2.163,4.146-5.047,9.374-5.047c6.309,0,14.421,4.326,14.421,13.159
		c0,1.262-0.181,3.605-1.262,6.67c-1.983,4.867-5.949,9.734-9.914,13.159c-13.34,11.718-28.482,13.52-40.379,13.52
		c-18.747,0-27.941-4.867-33.349-8.112c-15.503-9.193-30.104-28.482-30.104-58.405c0-36.234,22.714-65.797,62.732-65.797
		c9.915,0,19.108,1.803,25.958,4.507c10.455,4.145,23.435,14.241,23.435,24.515c0,8.293-7.211,13.34-13.16,13.34
		c-5.408,0-8.653-3.785-9.914-5.227c-1.442-1.442-2.524-2.884-3.966-4.326c-2.344-2.885-7.932-9.014-21.812-9.014
		C297.948,97.637,293.802,125.939,293.802,140.721z"/>
	<path fill="#231F20" d="M396.736,92.951c0.18-4.507,0.18-10.095,4.146-14.06c1.082-1.082,3.966-3.786,10.095-3.786
		c1.983,0,7.39,0.181,11.176,5.227c2.884,3.966,3.064,8.293,3.064,12.078v64.174c0,9.735,0,25.598,22.894,25.598
		c0.807,0,5.775-0.02,6.526-0.058c20.054-1.031,20.563-15.494,20.736-26.441V92.229c0.18-4.867,0.18-9.914,4.867-13.88
		c3.425-3.064,7.571-3.245,9.194-3.245c14.061,0,14.241,12.979,14.241,18.207v65.075c0,11.177-0.18,24.516-10.816,35.333
		c-9.773,9.598-23.771,12.439-37.577,12.61c-0.454,0.006-5.096,0.008-5.549,0.008c-8.833,0-20.55-1.081-30.285-5.227
		c-22.353-9.554-22.533-29.563-22.713-43.985V92.951z"/>
	<path fill="#231F20" d="M623.125,102.504c0,8.653-7.751,13.52-14.421,13.52c-3.786,0-7.03-1.442-10.816-6.49
		c-0.901-1.262-1.623-2.523-2.704-3.785c-3.966-5.227-10.816-8.652-21.091-8.652c-12.799,0-21.632,4.686-21.632,12.978
		c0,2.885,0.901,5.589,3.605,7.752s7.211,3.425,16.044,5.768c27.941,7.571,30.825,8.292,37.315,12.438
		c7.751,5.047,16.043,14.601,16.043,29.383c0,13.159-6.309,23.614-14.782,30.284c-10.455,8.112-23.975,10.816-37.315,10.816
		c-13.159,0-24.696-2.163-34.25-6.851c-19.108-9.554-20.37-21.811-20.37-25.056c0-8.833,7.211-14.241,14.061-14.241
		c5.949,0,9.734,3.785,13.881,9.915c3.966,5.948,8.652,12.618,26.859,12.618c4.146,0,8.653-0.36,12.619-1.982
		c1.442-0.541,9.553-3.786,9.553-13.16c0-5.047-2.163-7.932-5.227-10.095c-3.605-2.523-6.31-3.245-23.254-7.571
		c-20.911-5.588-44.345-11.897-44.345-38.036c0-23.074,18.027-38.577,50.835-38.577C605.279,73.482,623.125,89.706,623.125,102.504z
		"/>
	<g>
		<path fill="#231F20" d="M48.653,99.17v27.4h42.362c4.146,0,10.455,0,13.52,5.768c0.901,1.623,1.262,3.605,1.262,5.408
			c0,11.356-10.996,11.356-15.323,11.356H48.653v37.135c0,3.425-0.181,6.849-1.442,10.095c-3.064,7.571-9.914,7.932-12.618,7.932
			s-5.408-0.541-7.571-1.803c-6.31-3.785-6.49-10.275-6.49-15.503V93.762c0-4.867,0.18-10.996,5.588-14.962
			c4.146-3.064,9.554-3.064,13.881-3.064h56.423c2.884,0,5.949,0.18,8.653,1.262c4.327,1.982,6.49,5.768,6.49,10.275
			c0,1.442-0.18,4.326-1.803,6.67c-3.425,5.227-9.374,5.227-13.7,5.227H48.653z"/>
	</g>
	<g>
		<g>
			<g>
				<path fill="#1B99A7" d="M232.678,58.83c-1.773,0-3.574-0.394-5.274-1.226c-12.595-6.163-26.132-9.289-40.234-9.289
					c-14.103,0-27.639,3.125-40.234,9.289c-5.963,2.916-13.16,0.449-16.078-5.513c-2.917-5.962-0.449-13.16,5.513-16.078
					c15.913-7.787,33.004-11.735,50.8-11.735s34.887,3.948,50.8,11.735c5.962,2.918,8.43,10.116,5.513,16.078
					C241.397,56.353,237.123,58.83,232.678,58.83z"/>
			</g>
			<g>
				<path fill="#1B99A7" d="M187.17,255.721c-17.795,0-34.887-3.948-50.8-11.735c-5.962-2.918-8.43-10.116-5.513-16.078
					c2.918-5.962,10.115-8.429,16.078-5.513c12.595,6.163,26.132,9.289,40.234,9.289c14.103,0,27.639-3.125,40.234-9.289
					c5.962-2.918,13.159-0.45,16.078,5.513c2.917,5.962,0.449,13.16-5.513,16.078C222.057,251.773,204.965,255.721,187.17,255.721z"
					/>
			</g>
		</g>
	</g>
	<g>
		<path fill="#231F20" d="M291.151,251.207c-0.597,0-0.905-0.308-0.905-0.905v-17.095c0-0.539,0.346-0.924,0.905-0.924h3.33
			c0.481,0,0.962,0.405,0.962,0.924v17.095c0,0.596-0.327,0.905-0.962,0.905H291.151z"/>
		<path fill="#231F20" d="M302.492,251.207c-0.597,0-0.886-0.289-0.886-0.885v-17.056c0-0.539,0.346-0.943,0.886-0.943h4.312
			c0.346,0,0.635,0.153,0.847,0.442l7.45,10.242v-9.914c0.077-0.52,0.366-0.769,0.866-0.769h3.427c0.481,0,0.963,0.366,0.963,0.904
			v17.095c0,0.596-0.328,0.885-0.963,0.885h-4.158c-0.25,0-0.501-0.154-0.731-0.443l-7.643-10.472v10.03
			c0,0.596-0.308,0.885-0.924,0.885H302.492z"/>
		<path fill="#231F20" d="M331.625,251.207c-0.443,0-0.77-0.173-1.02-0.5c-0.135-0.193-0.328-0.559-0.539-1.097l-3.157-7.777
			l-3.331-8.451c-0.038-0.096-0.058-0.193-0.058-0.269c0-0.443,0.443-0.809,0.982-0.809h3.504c0.635,0,1.001,0.327,1.232,0.885
			l3.792,10.607l3.792-10.645c0.25-0.578,0.693-0.867,1.29-0.867h3.446c0.635,0,1.078,0.25,1.078,0.655
			c0,0.077-0.019,0.153-0.058,0.231l-6.776,16.844c-0.327,0.79-0.77,1.194-1.348,1.194H331.625z"/>
		<path fill="#231F20" d="M346.914,251.207c-0.481-0.02-0.751-0.347-0.751-0.885v-17.095c0-0.596,0.289-0.904,0.885-0.904h12.282
			c0.539,0,0.905,0.366,0.905,0.904v2.638c0,0.596-0.366,0.924-0.905,0.924h-7.989v2.869h6.314c0.539,0,0.885,0.346,0.885,0.943
			v2.329c0,0.539-0.346,0.905-0.885,0.905h-6.314v2.791h8.413c0.539,0,0.905,0.366,0.905,0.962v2.734
			c0,0.52-0.346,0.885-0.905,0.885H346.914z"/>
		<path fill="#231F20" d="M364.418,248.839c-0.27-0.289-0.462-0.578-0.597-0.905c-0.058-0.096-0.077-0.211-0.077-0.385
			c0-0.231,0.096-0.423,0.27-0.558l2.349-1.886c0.096-0.096,0.289-0.193,0.423-0.193c0.404,0.058,1.136,0.712,1.405,0.943
			c0.596,0.52,1.212,0.924,1.886,1.194c0.366,0.135,0.731,0.211,1.117,0.211c0.809,0,1.405-0.193,1.79-0.578
			c0.328-0.327,0.481-0.751,0.481-1.27c0-0.481-0.385-0.924-1.136-1.347c-0.674-0.385-1.598-0.616-1.752-0.674
			c-2.214-0.596-3.831-1.367-4.851-2.31s-1.521-2.137-1.521-3.658c0-1.463,0.712-2.83,1.964-3.85c1.29-1.02,3.099-1.636,5.236-1.636
			c2.464,0,4.543,0.866,6.16,2.329c0.462,0.423,0.693,0.808,0.693,1.136c0,0.096-0.058,0.211-0.193,0.346
			c-0.193,0.25-0.578,0.597-1.155,1.078c-0.443,0.385-0.886,0.693-1.29,0.944c-0.173,0.096-0.308,0.153-0.366,0.153
			c-0.173,0-0.404-0.115-0.655-0.346c-0.077-0.077-0.674-0.616-1.27-0.924c-0.597-0.289-1.213-0.443-1.848-0.443
			c-0.559,0-1.001,0.096-1.348,0.27c-0.423,0.211-0.636,0.539-0.636,1.001c0,0.423,0.27,0.789,0.789,1.097
			c0.443,0.289,1.29,0.559,2.156,0.848c2.099,0.693,3.658,1.405,4.736,2.329c1.174,1.021,1.791,2.253,1.791,3.889
			c0,1.926-0.886,3.408-2.368,4.466c-1.444,1.001-3.331,1.54-5.39,1.54C368.519,251.65,366.054,250.61,364.418,248.839z"/>
		<path fill="#231F20" d="M386.33,251.207c-0.597,0-0.886-0.289-0.886-0.885v-13.187h-4.023c-0.481,0-0.712-0.269-0.712-0.789
			v-3.292c0-0.481,0.231-0.731,0.712-0.731h13.63c0.481,0,0.712,0.25,0.712,0.731v3.292c0,0.366-0.27,0.789-0.712,0.789h-4.062
			v13.187c0,0.596-0.308,0.885-0.943,0.885H386.33z"/>
		<path fill="#231F20" d="M398.557,251.207c-0.578,0-0.866-0.289-0.886-0.885l0.154-1.791c0.077-1.155,0.173-2.483,0.308-3.965
			l0.212-2.772l0.096-1.271l0.539-7.296c0.058-0.52,0.366-0.904,0.886-0.904h5.429c0.385,0,0.712,0.288,0.847,0.751v-0.02
			c0.481,1.232,0.943,2.329,1.348,3.311l1.078,2.657l1.578,3.889c1.367-3.311,2.714-6.584,4.004-9.837
			c0.135-0.463,0.462-0.751,0.847-0.751h5.429c0.52,0,0.828,0.384,0.886,0.904l0.173,2.253l0.366,4.794l0.327,4.196l0.443,5.853
			c0,0.596-0.288,0.885-0.885,0.885h-3.6c-0.597,0-0.905-0.289-0.943-0.885l-0.558-9.337c-0.019-0.135-0.019-0.327-0.019-0.539
			l-0.058-0.52c-0.77,1.848-1.425,3.427-1.944,4.736c-0.866,2.137-1.521,3.716-1.964,4.755c-0.212,0.462-0.501,0.731-0.809,0.731
			h-3.388c-0.288,0-0.462-0.25-0.828-0.769l-3.889-9.549c-0.135,2.329-0.231,4.081-0.308,5.237
			c-0.154,2.329-0.269,4.081-0.327,5.255c-0.038,0.596-0.346,0.885-0.924,0.885H398.557z"/>
		<path fill="#231F20" d="M427.632,251.207c-0.481-0.02-0.751-0.347-0.751-0.885v-17.095c0-0.596,0.289-0.904,0.885-0.904h12.282
			c0.539,0,0.905,0.366,0.905,0.904v2.638c0,0.596-0.366,0.924-0.905,0.924h-7.989v2.869h6.314c0.539,0,0.885,0.346,0.885,0.943
			v2.329c0,0.539-0.347,0.905-0.885,0.905h-6.314v2.791h8.412c0.539,0,0.905,0.366,0.905,0.962v2.734
			c0,0.52-0.346,0.885-0.905,0.885H427.632z"/>
		<path fill="#231F20" d="M446.849,251.207c-0.597,0-0.886-0.289-0.886-0.885v-17.056c0-0.539,0.347-0.943,0.886-0.943h4.312
			c0.346,0,0.635,0.153,0.847,0.442l7.449,10.242v-9.914c0.077-0.52,0.366-0.769,0.867-0.769h3.427c0.481,0,0.963,0.366,0.963,0.904
			v17.095c0,0.596-0.328,0.885-0.963,0.885h-4.158c-0.25,0-0.501-0.154-0.732-0.443l-7.643-10.472v10.03
			c0,0.596-0.308,0.885-0.924,0.885H446.849z"/>
		<path fill="#231F20" d="M473.749,251.207c-0.596,0-0.885-0.289-0.885-0.885v-13.187h-4.023c-0.481,0-0.712-0.269-0.712-0.789
			v-3.292c0-0.481,0.231-0.731,0.712-0.731h13.629c0.481,0,0.712,0.25,0.712,0.731v3.292c0,0.366-0.269,0.789-0.712,0.789h-4.062
			v13.187c0,0.596-0.308,0.885-0.943,0.885H473.749z"/>
		<path fill="#231F20" d="M500.475,248.762c-1.829-1.829-2.907-4.255-2.907-6.95c0-2.675,1.079-5.178,2.907-7.007
			c1.79-1.79,4.312-2.888,6.949-2.888c2.002,0,3.812,0.636,5.737,1.868h-0.019c0.481,0.308,0.693,0.558,0.693,0.962
			c0,0.154-0.058,0.347-0.135,0.443l-1.483,2.56c-0.173,0.25-0.366,0.385-0.616,0.385c-0.153,0-0.366-0.077-0.616-0.25
			c-0.924-0.712-2.29-1.212-3.522-1.212c-1.367,0-2.56,0.558-3.427,1.54c-0.866,0.943-1.367,2.272-1.367,3.658
			c0,1.444,0.5,2.715,1.367,3.58c0.847,0.867,2.002,1.367,3.292,1.367c0.673-0.02,1.289-0.116,1.809-0.289
			c0.52-0.174,1.155-0.443,1.944-0.809c0.212-0.135,0.405-0.193,0.539-0.193c0.173,0,0.366,0.154,0.578,0.442l1.656,2.387
			c0.077,0.135,0.154,0.308,0.154,0.405c0,0.404-0.27,0.654-0.655,0.885c-1.944,1.309-3.927,1.963-5.929,1.963
			C504.749,251.611,502.265,250.553,500.475,248.762z"/>
		<path fill="#231F20" d="M535.439,250.34c0.058,0.154,0.077,0.289,0.077,0.405c0,0.308-0.193,0.462-0.578,0.462h-4.062
			c-0.596,0-0.905-0.52-1.194-1.309l-0.539-1.617h-6.622c-0.308,0.943-0.578,1.694-0.79,2.29c-0.173,0.423-0.462,0.636-0.905,0.636
			h-4.081c-0.385,0-0.578-0.154-0.578-0.462c0-0.135,0-0.212,0.019-0.25c0.02-0.058,0.02-0.116,0.039-0.135l6.795-17.461
			c0.173-0.385,0.423-0.596,0.905-0.596h3.85c0.25,0,0.462,0.058,0.616,0.193c0.057,0.058,0.115,0.135,0.153,0.211
			c0.038,0.096,0.077,0.193,0.135,0.25c1.983,5.14,4.255,10.934,6.776,17.383H535.439z M527.738,244.065l-1.886-5.371l-0.269,0.712
			l-0.693,1.964l-0.751,2.117l-0.211,0.578H527.738z"/>
		<path fill="#231F20" d="M540.275,251.207c-0.635,0-0.943-0.327-0.943-0.963v-17.056c0-0.578,0.308-0.866,0.905-0.866h7.623
			c1.752,0,3.292,0.751,4.428,1.983c1.097,1.251,1.771,2.906,1.771,4.601c0,1.636-0.636,3.273-1.733,4.505
			c-1.136,1.251-2.675,2.002-4.37,2.002h-3.426v4.909c0,0.52-0.308,0.885-0.905,0.885H540.275z M546.647,240.869
			c0.52,0,0.982-0.193,1.405-0.596c0.385-0.385,0.578-0.847,0.578-1.367c0-0.559-0.193-1.059-0.578-1.464
			c-0.385-0.404-0.847-0.616-1.405-0.616h-2.117v4.043H546.647z"/>
		<path fill="#231F20" d="M559.126,251.207c-0.596,0-0.905-0.308-0.905-0.905v-17.095c0-0.539,0.347-0.924,0.905-0.924h3.331
			c0.481,0,0.963,0.405,0.963,0.924v17.095c0,0.596-0.327,0.905-0.963,0.905H559.126z"/>
		<path fill="#231F20" d="M572.642,251.207c-0.596,0-0.885-0.289-0.885-0.885v-13.187h-4.023c-0.481,0-0.712-0.269-0.712-0.789
			v-3.292c0-0.481,0.231-0.731,0.712-0.731h13.629c0.481,0,0.712,0.25,0.712,0.731v3.292c0,0.366-0.269,0.789-0.712,0.789h-4.062
			v13.187c0,0.596-0.308,0.885-0.943,0.885H572.642z"/>
		<path fill="#231F20" d="M601.831,250.34c0.058,0.154,0.077,0.289,0.077,0.405c0,0.308-0.193,0.462-0.578,0.462h-4.062
			c-0.597,0-0.905-0.52-1.194-1.309l-0.539-1.617h-6.622c-0.308,0.943-0.578,1.694-0.789,2.29c-0.174,0.423-0.463,0.636-0.905,0.636
			h-4.081c-0.385,0-0.578-0.154-0.578-0.462c0-0.135,0-0.212,0.02-0.25c0.019-0.058,0.019-0.116,0.038-0.135l6.795-17.461
			c0.174-0.385,0.423-0.596,0.905-0.596h3.85c0.25,0,0.462,0.058,0.616,0.193c0.058,0.058,0.116,0.135,0.154,0.211
			c0.038,0.096,0.077,0.193,0.135,0.25c1.983,5.14,4.254,10.934,6.776,17.383H601.831z M594.131,244.065l-1.886-5.371l-0.27,0.712
			l-0.693,1.964l-0.751,2.117l-0.212,0.578H594.131z"/>
		<path fill="#231F20" d="M606.476,251.207c-0.597,0-0.905-0.289-0.905-0.885v-17.095c0-0.539,0.346-0.904,0.943-0.904h3.388
			c0.52,0,0.886,0.346,0.886,0.904v12.802h8.682c0.539,0,0.905,0.366,0.905,0.963v3.331c0,0.52-0.366,0.885-0.905,0.885H606.476z"/>
	</g>
</g>
</svg>
